<?xml version="1.0" encoding="utf-8"?><!-- Uploaded to: SVG Repo, www.svgrepo.com, Generator: SVG Repo Mixer Tools -->
<svg width="4rem" height="4rem" viewBox="0 0 960 960" fill="none" xmlns="http://www.w3.org/2000/svg">
<path d="M413.059 208.901C608.802 236.46 691.795 170.573 712.469 409.752C798.504 403.547 819.597 489.8 801.131 558.596C813.938 585.419 817.15 620.066 791.358 641.453C736.952 660.845 762.963 629.112 747.473 708.56C742.84 729.522 729.559 754.833 704.08 750.955C667.813 750.275 632.186 735.998 640.724 693.188C642.813 677.987 643.212 662.55 644.4 646.918C526.21 646.918 408.523 646.918 289.266 646.918C288.294 669.902 292.647 695.092 284.932 717.654C276.537 746.61 245.759 749.352 220.35 744.025C168.889 736.955 181.451 680.766 183.062 643.127C143.971 649.978 120.638 592.942 147.192 565.501C155.528 561.552 130.812 536.661 132.15 522.409C116.693 457.957 146.725 398.405 219.825 404.845C223.547 404.734 225.39 403.664 226.435 399.821C264.508 286.424 269.681 203.459 413.059 208.901ZM287.955 403.125C288.851 361.273 339.214 338.093 376.168 350.285C431.558 363.375 419.471 398.402 440.568 406.275C516.767 405.955 593.117 409.418 669.193 408.617C658.228 370.383 659.703 276.558 610.786 271.272C525.688 262.66 439.1 247.47 353.704 258.266C298.37 270.311 292.635 343.714 270.564 387.01C258.184 408.385 269.393 402.494 287.955 403.125ZM174.588 596.487C354.297 607.995 534.334 597.529 714.13 605.986C726.226 603.481 776.164 614.504 772.054 597.103C772.343 593.492 772.344 589.048 766.677 588.677C657.284 579.315 547.364 586.691 437.818 578.211C397.035 578.92 177.775 561.416 174.588 596.487ZM724.774 495.766C724.513 459.028 675.521 469.748 670.872 498.772C664.162 543.102 727.79 535.008 724.774 495.766ZM681.562 648.326C680.598 665.526 679.624 683.107 678.621 700.687C679.463 712.356 696.344 707.841 704.877 711.087C712.519 690.853 712.914 670.07 712.309 648.326C701.85 648.326 691.97 648.326 681.562 648.326ZM246.781 534.515C267.893 520.971 267.201 464.285 233.307 483.641C210.236 503.766 219.679 525.528 246.781 534.515ZM222.946 643.578C222.946 657.553 222.822 671.304 222.976 685.052C223.191 704.234 222.902 701.621 239 703.374C243.788 703.895 245.993 702.791 246.013 698.168C246.091 680.147 246.045 662.126 246.045 643.579C239.531 643.578 232.359 643.578 222.946 643.578ZM332.166 403.939C352.196 403.939 371.722 403.939 391.485 403.939C376.535 383.549 343.298 383.199 332.166 403.939Z" fill="#000000"/>
<path d="M919.69 342.167C904.518 374.882 877.776 400.919 857.489 430.595C851.315 440.056 838.415 444.488 829.12 438.007C799.504 414.086 868.275 358.719 879.848 333.116C890.963 315.862 917.726 319.559 919.69 342.167Z" fill="#000000"/>
<path d="M196.654 354.115C198.368 380.922 165.322 386.007 158.831 361.254C156.88 331.776 114.863 266.84 151.64 251.172C190.879 243.993 186.956 327.987 196.654 354.115Z" fill="#000000"/>
<path d="M62.4105 376.051C79.5025 382.753 118.711 410.297 110.585 431.36C93.2885 465.448 61.5485 423.425 44.8315 409.278C33.8425 397.126 46.4635 376.762 62.4105 376.051Z" fill="#000000"/>
<path d="M789.942 334.684C785.27 351.641 792.04 387.513 766.973 387.308C743.943 383.571 752.089 349.54 749.457 332.384C749.824 303.169 792.105 305.745 789.942 334.684Z" fill="#000000"/>
<path d="M287.955 403.125C269.963 402.329 257.764 408.637 270.572 387.014C292.557 343.73 298.428 270.302 353.699 258.267C439.1 247.467 525.686 262.663 610.781 271.27C659.857 276.649 658.109 370.28 669.198 408.613C593.117 409.418 516.767 405.955 440.573 406.271C419.688 398.643 431.259 363.132 376.168 350.29C339.176 338.094 288.876 361.273 287.955 403.125Z" fill="white"/>
<path d="M174.586 596.489C177.408 561.425 397.466 578.921 437.813 578.205C547.362 586.693 657.281 579.316 766.675 588.678C772.341 589.05 772.341 593.494 772.052 597.102C776.451 614.559 725.426 603.448 714.129 605.995C534.333 597.531 354.294 607.998 174.586 596.489Z" fill="white"/>
<path d="M724.773 495.766C727.779 535.023 664.156 543.089 670.868 498.77C675.515 469.746 724.514 459.03 724.773 495.766Z" fill="white"/>
<path d="M681.563 648.328C691.971 648.328 701.851 648.328 712.311 648.328C712.916 670.072 712.521 690.854 704.88 711.087C696.349 707.868 679.465 712.337 678.621 700.691C679.625 683.109 680.599 665.528 681.563 648.328Z" fill="white"/>
<path d="M222.946 643.578C232.359 643.578 239.531 643.578 246.044 643.578C246.044 662.125 246.09 680.146 246.012 698.167C245.992 702.791 243.787 703.895 238.999 703.373C222.901 701.62 223.19 704.233 222.975 685.051C222.822 671.304 222.946 657.554 222.946 643.578Z" fill="white"/>
<path d="M332.164 403.94C343.296 383.2 376.533 383.55 391.483 403.94C371.72 403.94 352.194 403.94 332.164 403.94Z" fill="white"/>
<path d="M269.347 500.571C272.353 539.828 208.73 547.894 215.442 503.575C220.089 474.551 269.088 463.835 269.347 500.571Z" fill="white"/>
</svg>