<?xml version="1.0" encoding="utf-8"?>

<!DOCTYPE svg PUBLIC "-//W3C//DTD SVG 1.1//EN" "http://www.w3.org/Graphics/SVG/1.1/DTD/svg11.dtd">
<!-- Uploaded to: SVG Repo, www.svgrepo.com, Generator: SVG Repo Mixer Tools -->
<svg version="1.1" id="GROUP" xmlns="http://www.w3.org/2000/svg" xmlns:xlink="http://www.w3.org/1999/xlink" 
	 width="4rem" height="4rem" viewBox="0 0 1800 1800" enable-background="new 0 0 1800 1800" xml:space="preserve">
<g>
	
		<line fill="none" stroke="#333333" stroke-width="10" stroke-linecap="round" stroke-linejoin="round" stroke-miterlimit="10" x1="904.328" y1="1132.364" x2="904.328" y2="895.221"/>
	
		<line fill="none" stroke="#333333" stroke-width="10" stroke-linecap="round" stroke-linejoin="round" stroke-miterlimit="10" x1="1122.56" y1="1262.028" x2="915.405" y2="1146.604"/>
	
		<line fill="none" stroke="#333333" stroke-width="10" stroke-linecap="round" stroke-linejoin="round" stroke-miterlimit="10" x1="686.239" y1="1262.028" x2="893.394" y2="1146.604"/>
	<path fill="#333333" d="M974.697,512.844v-7.453c57.008-26.082,97.412-80.138,106.207-142.043
		c24.032-8.717,40.98-31.933,40.98-58.221c0-22.63-12.225-42.889-31.146-53.695c1.969-6.164,3.585-12.379,4.831-18.586
		c10.066-49.925-1.4-100.947-32.293-143.668c-30.385-42.033-76.063-71.018-128.615-81.617c-14.133-2.85-28.541-4.294-42.824-4.294
		c-45.073,0-89.049,14.537-123.827,40.929c-35.818,27.174-60.31,65.782-68.967,108.718c-6.563,32.551-3.881,66.134,7.72,97.641
		c-19.665,10.569-32.688,31.348-32.688,54.58c0,26.629,17.197,49.926,41.586,58.449c9.035,63.375,50.755,117.946,109.634,143.38
		v5.885C703.003,540.551,618.678,632.024,618.678,738.92v28.549h106.436v-0.051h11.82v0.051h444.389V738.92
		C1181.322,632.02,1096.998,540.551,974.697,512.844z M891.838,60.37c10.487,0,21.104,1.066,31.545,3.164
		c38.423,7.75,71.671,28.738,93.623,59.098c20.469,28.305,28.713,61.591,23.443,94.254c-28.099-13.11-65.026-26.972-103.875-32.293
		c-73.02-9.985-74.189-13.376-78.543-25.997l-13.939-40.344l-32.07,28.373c-3.413,3.005-29.25,25.717-59.067,50.42
		c-0.821-10.957-0.134-21.943,2.067-32.853C767.147,104.033,824.688,60.37,891.838,60.37z M770.86,256.186
		c20.026-16.2,39.808-32.93,54.121-45.206c19.836,17.894,50.771,22.927,103.848,30.187c36.003,4.926,71.31,19.343,96.846,32.006
		v64.342c0,70.252-57.15,127.411-127.402,127.411c-70.257,0-127.412-57.159-127.412-127.411V256.186z M882.394,521.32
		c11.808,1.04,23.542,0.916,35.208-0.313v17.627l-17.653,9.783l-17.554-9.753V521.32z M678.691,710.336
		c13.105-63.942,69.255-117.096,146.604-138.622v0.551l74.606,41.448l74.796-41.427v-0.572
		c77.361,21.526,133.515,74.692,146.611,138.647l-384.611-0.047v0.021H678.691z"/>
	<path fill="#333333" d="M376.487,1542.108v-7.458c57.009-26.082,97.414-80.139,106.208-142.039
		c24.032-8.717,40.98-31.932,40.98-58.221c0-22.635-12.225-42.885-31.146-53.699c1.969-6.164,3.584-12.379,4.835-18.586
		c10.062-49.921-1.406-100.942-32.293-143.668c-30.39-42.029-76.063-71.013-128.615-81.608c-14.128-2.854-28.541-4.298-42.829-4.298
		c-45.072,0-89.049,14.537-123.827,40.929c-35.818,27.174-60.314,65.782-68.971,108.718c-6.559,32.551-3.877,66.139,7.724,97.641
		c-19.665,10.57-32.689,31.349-32.689,54.576c0,26.633,17.198,49.93,41.583,58.449c9.035,63.375,50.755,117.947,109.638,143.385
		v5.88c-122.292,27.707-206.617,119.176-206.617,226.067v28.558h106.436v-0.12h11.816v0.12h444.393v-28.558
		C583.113,1661.284,498.788,1569.815,376.487,1542.108z M293.628,1089.631c10.488,0,21.105,1.065,31.545,3.172
		c38.423,7.745,71.675,28.729,93.622,59.094c20.478,28.309,28.718,61.604,23.443,94.254c-28.103-13.11-65.034-26.977-103.874-32.294
		c-73.02-9.985-74.189-13.38-78.548-25.996l-13.935-40.345l-32.092,28.391c-5.541,4.879-30.295,26.59-59.042,50.402
		c-0.825-10.956-0.138-21.938,2.063-32.852C168.938,1133.297,226.476,1089.631,293.628,1089.631z M172.651,1285.445
		c20.013-16.188,39.799-32.926,54.121-45.205c19.833,17.894,50.772,22.932,103.848,30.191c36.012,4.922,71.31,19.338,96.846,32.006
		v64.342c0,70.252-57.155,127.406-127.403,127.406c-70.256,0-127.412-57.154-127.412-127.406V1285.445z M284.185,1550.584
		c11.816,1.041,23.529,0.916,35.208-0.317v17.632l-17.657,9.778l-17.55-9.753V1550.584z M116.373,1739.6v0.025H80.474
		c13.093-63.959,69.255-117.121,146.612-138.646v0.55l74.606,41.444l74.795-41.427v-0.567
		c77.362,21.525,133.52,74.688,146.612,138.646l-384.611-0.051v0.025H116.373z"/>
	<path fill="#333333" d="M1572.91,1542.108v-7.458c57.009-26.082,97.414-80.139,106.207-142.039
		c24.033-8.717,40.98-31.932,40.98-58.221c0-22.631-12.224-42.889-31.141-53.699c1.965-6.164,3.58-12.375,4.826-18.586
		c10.067-49.921-1.4-100.942-32.293-143.668c-30.381-42.029-76.059-71.013-128.61-81.608c-14.129-2.854-28.537-4.298-42.833-4.298
		c-45.068,0-89.045,14.537-123.822,40.929c-35.818,27.174-60.311,65.782-68.967,108.718c-6.564,32.551-3.882,66.13,7.719,97.641
		c-19.664,10.57-32.688,31.349-32.688,54.576c0,26.633,17.198,49.93,41.587,58.449c9.035,63.379,50.754,117.951,109.633,143.385
		v5.88c-122.296,27.707-206.621,119.176-206.621,226.067v28.558h106.436v-0.052h11.825v0.052h444.384v-28.558
		C1779.531,1661.284,1695.207,1569.815,1572.91,1542.108z M1490.047,1089.631c10.488,0,21.104,1.065,31.55,3.172
		c38.423,7.745,71.671,28.729,93.622,59.094c20.478,28.309,28.722,61.611,23.447,94.254c-28.103-13.11-65.033-26.977-103.883-32.294
		c-73.016-9.985-74.185-13.38-78.539-26.001l-13.939-40.34l-32.151,28.442c-5.562,4.9-30.381,26.658-58.986,50.351
		c-0.821-10.956-0.134-21.943,2.067-32.852C1365.36,1133.297,1422.894,1089.631,1490.047,1089.631z M1369.074,1285.445
		c20.073-16.238,39.828-32.951,54.12-45.205c19.833,17.894,50.769,22.932,103.849,30.191c36.002,4.922,71.309,19.338,96.846,32.006
		v64.342c0,70.252-57.15,127.406-127.403,127.406c-70.257,0-127.411-57.154-127.411-127.406V1285.445z M1480.607,1550.584
		c11.803,1.041,23.533,0.912,35.203-0.317v17.632l-17.652,9.778l-17.551-9.753V1550.584z M1276.9,1739.6
		c13.109-63.946,69.255-117.1,146.607-138.621v0.55l74.607,41.444l74.795-41.427v-0.567c77.37,21.521,133.52,74.688,146.612,138.646
		l-384.616-0.051v0.025H1276.9z"/>
</g>
</svg>