<?xml version="1.0" encoding="iso-8859-1"?>
<!-- Uploaded to: SVG Repo, www.svgrepo.com, Generator: SVG Repo Mixer Tools -->
<svg height="4rem" width="4rem" version="1.1" id="Layer_1" xmlns="http://www.w3.org/2000/svg" xmlns:xlink="http://www.w3.org/1999/xlink" 
	 viewBox="0 0 511.999 511.999" xml:space="preserve">
<path style="fill:#5D734F;" d="M203.467,227.316l8.069-2.421c4.413-1.324,8.761-1.977,13.106-1.957
	c4.345,0.02,18.816-0.547,18.816-0.547l7.304-10.976l-8.047-2.495c-12.101-3.752-23.883-3.806-36.021-0.165l-8.069,2.421
	L203.467,227.316z"/>
<path style="fill:#BCC987;" d="M511.994,93.086L224.97,222.945l33.79,9.369l64.3-11.831l160.965-90.086
	C498.11,116.923,506.912,104.853,511.994,93.086z"/>
<path style="fill:#9CAC74;" d="M484.024,130.397L258.76,232.314l48.929,13.565C400.387,193.942,454.125,159.002,484.024,130.397z"/>
<path style="fill:#FEC45E;" d="M177.591,231.093L2.892,310.133c7.366,16.281,26.56,23.526,42.853,16.156l134.963-61.061
	L177.591,231.093z"/>
<path style="fill:#9CAC74;" d="M215.547,230.613l-4.353-9.619l-39.753,23.755l9.264,20.478l26.27-11.885
	C215.613,249.433,219.454,239.251,215.547,230.613z"/>
<path style="fill:#FCDB5A;" d="M181.674,240.119L36.479,305.811c-16.281,7.366-31.308,9.307-33.587,4.322
	c-7.37-16.317-0.142-35.491,16.151-42.863l134.963-61.061L181.674,240.119z"/>
<path style="fill:#BCC987;" d="M197.721,232.858l-26.28,11.889l-17.437-38.541l26.27-11.885c8.638-3.908,18.816-0.081,22.724,8.557
	l8.195,18.113C212.394,223.643,206.348,228.955,197.721,232.858z"/>
<path style="fill:#5D734F;" d="M284.679,308.532l2.419-8.069c1.324-4.413,1.976-8.761,1.957-13.106
	c-0.02-4.345,0.546-18.816,0.546-18.816l10.976-7.304l2.495,8.047c3.752,12.101,3.807,23.883,0.166,36.021l-2.421,8.069
	L284.679,308.532z"/>
<path style="fill:#C8DB86;" d="M418.897,0L289.049,287.03l-9.37-33.79l11.829-64.301l90.078-160.967
	C395.06,13.885,407.13,5.082,418.897,0z"/>
<path style="fill:#D4ED85;" d="M381.586,27.972L279.678,253.241l-13.568-48.929C318.044,111.611,352.983,57.873,381.586,27.972z"/>
<path style="fill:#FEC45E;" d="M280.914,334.413L201.88,509.116c16.282,7.366,35.481,0.135,42.852-16.157l61.056-134.965
	L280.914,334.413z"/>
<path style="fill:#9CAC74;" d="M309.105,308.995l-9.619-4.351l-14.175,44.087l20.478,9.264l11.884-26.27
	C321.58,323.087,317.742,312.903,309.105,308.995z"/>
<path style="fill:#FCDB5A;" d="M289.94,338.497l-65.686,145.199c-7.366,16.282-17.37,27.66-22.374,25.421
	c-16.308-7.39-23.537-26.563-16.167-42.856l61.056-134.965L289.94,338.497z"/>
<path style="fill:#BCC987;" d="M297.199,322.45l-11.889,26.28l-38.541-17.435l11.884-26.27c3.908-8.638,14.08-12.484,22.717-8.576
	l18.114,8.194C302.136,305.842,301.102,313.823,297.199,322.45z"/>
</svg>